<?xml version="1.0" standalone="no"?>
<!DOCTYPE svg PUBLIC "-//W3C//DTD SVG 20010904//EN"
 "http://www.w3.org/TR/2001/REC-SVG-20010904/DTD/svg10.dtd">
<svg version="1.0" xmlns="http://www.w3.org/2000/svg"
 width="512.000000pt" height="512.000000pt" viewBox="0 0 512.000000 512.000000"
 preserveAspectRatio="xMidYMid meet">
<metadata>
Created by potrace 1.15, written by Peter Selinger 2001-2017
</metadata>
<g transform="translate(0.000000,512.000000) scale(0.100000,-0.100000)"
fill="#000000" stroke="none">
<path d="M203 4958 c-174 -172 -196 -198 -191 -231 3 -19 32 5 192 163 103
102 192 193 197 203 8 14 5 17 -17 17 -21 0 -60 -33 -181 -152z"/>
<path d="M303 4858 c-140 -139 -264 -265 -275 -281 -10 -15 -18 -37 -16 -50 3
-18 49 23 292 263 158 157 292 293 297 303 8 14 5 17 -17 17 -22 0 -75 -47
-281 -252z"/>
<path d="M402 4758 c-194 -194 -362 -365 -373 -381 -11 -15 -19 -37 -17 -50 4
-18 67 40 392 363 213 212 392 393 397 403 8 14 5 17 -18 17 -22 0 -89 -62
-381 -352z"/>
<path d="M502 4658 c-249 -249 -462 -465 -473 -481 -11 -15 -19 -37 -17 -50 4
-18 84 57 492 463 268 267 492 493 497 503 8 14 5 17 -18 17 -22 0 -104 -76
-481 -452z"/>
<path d="M602 4558 c-304 -304 -562 -565 -573 -581 -11 -15 -19 -37 -17 -50 4
-18 101 75 592 563 323 322 592 593 597 603 8 14 5 17 -18 17 -23 0 -118 -91
-581 -552z"/>
<path d="M702 4458 c-359 -359 -662 -665 -673 -681 -11 -15 -19 -37 -17 -50 4
-18 118 92 692 663 378 377 692 693 697 703 8 14 5 17 -18 17 -23 0 -133 -106
-681 -652z"/>
<path d="M802 4358 c-414 -414 -762 -765 -773 -781 -11 -15 -19 -37 -17 -50 4
-18 136 109 792 763 433 432 792 793 797 803 8 14 5 17 -18 17 -23 0 -148
-120 -781 -752z"/>
<path d="M902 4258 c-469 -469 -862 -865 -873 -881 -11 -15 -19 -37 -17 -50 4
-18 153 126 892 863 488 487 892 893 897 903 8 14 5 17 -18 17 -23 0 -162
-135 -881 -852z"/>
<path d="M1048 4203 l-908 -908 -62 -15 c-68 -17 -83 -34 -44 -51 l25 -12 -25
-33 c-15 -19 -24 -43 -22 -56 3 -21 7 -19 58 29 57 53 58 54 139 37 21 -5 13
-15 -88 -119 -83 -85 -111 -120 -111 -139 0 -14 3 -26 7 -26 3 0 70 63 147
140 l141 139 58 -6 58 -6 -205 -207 c-165 -166 -206 -212 -206 -234 0 -22 3
-25 17 -17 10 5 119 111 243 235 l225 226 65 0 65 0 -39 -37 c-24 -25 -40 -34
-43 -25 -3 7 -22 12 -44 12 l-39 0 0 -57 0 -57 -225 -226 c-180 -182 -225
-232 -225 -253 0 -15 3 -27 7 -27 4 0 105 98 225 217 l218 217 0 -64 0 -64
-225 -226 c-182 -183 -225 -232 -225 -254 0 -22 3 -25 17 -17 10 5 117 109
237 229 190 191 222 219 240 212 12 -5 34 -11 50 -15 28 -6 21 -14 -257 -294
-235 -235 -287 -292 -287 -315 0 -22 3 -25 18 -17 9 5 153 146 319 313 l303
303 61 -3 62 -4 -382 -382 c-313 -314 -381 -387 -381 -409 0 -15 3 -27 7 -27
4 0 190 182 413 405 l405 404 58 -6 59 -6 -471 -471 c-392 -393 -471 -476
-471 -499 0 -23 3 -26 18 -18 9 5 235 228 502 495 515 516 490 495 570 480 32
-7 29 -9 -529 -568 -469 -470 -561 -566 -561 -589 0 -23 3 -26 18 -18 9 5 276
269 592 585 l575 576 51 0 c28 0 54 -3 58 -7 4 -4 -286 -300 -644 -658 -541
-541 -650 -655 -650 -678 0 -15 3 -27 7 -27 4 0 314 306 688 679 l680 679 59
-5 58 -6 -746 -746 c-622 -623 -746 -751 -746 -774 0 -15 3 -27 7 -27 4 0 355
347 779 771 l771 771 58 -7 57 -8 -836 -836 c-704 -704 -836 -841 -836 -864 0
-23 3 -26 17 -18 10 5 400 393 868 860 804 805 852 851 885 851 100 -1 156 61
-844 -939 -775 -776 -926 -931 -926 -954 0 -15 3 -27 7 -27 4 0 410 402 901
892 l893 893 -56 -120 -56 -120 -845 -845 c-705 -707 -844 -850 -844 -873 0
-15 3 -27 7 -27 4 0 373 366 820 813 l813 812 -31 -95 -31 -95 -789 -790
c-659 -660 -789 -795 -789 -818 0 -15 3 -27 7 -27 4 0 354 345 777 767 423
423 766 761 763 752 -3 -10 -11 -46 -18 -80 l-11 -64 -759 -760 c-633 -635
-759 -765 -759 -788 0 -15 3 -27 7 -27 4 0 344 336 755 747 l748 748 0 -40 c0
-22 5 -47 10 -55 7 -12 -146 -171 -730 -755 -407 -407 -740 -744 -740 -748 0
-4 12 -7 27 -7 23 0 193 165 1050 1022 l1023 1023 0 -65 0 -65 -941 -940
c-517 -517 -945 -948 -950 -958 -8 -14 -5 -17 18 -17 23 0 172 145 950 922
l923 923 0 -65 0 -65 -841 -840 c-462 -462 -845 -848 -850 -858 -8 -14 -5 -17
18 -17 23 0 159 131 858 829 808 807 831 829 863 824 32 -5 32 -5 32 35 0 23
6 45 15 52 13 11 15 6 15 -39 0 -34 4 -51 12 -51 7 0 -355 -368 -805 -818
-449 -449 -817 -821 -817 -825 0 -4 12 -7 27 -7 23 0 163 136 853 825 l825
825 65 0 65 0 -818 -818 c-449 -449 -817 -821 -817 -825 0 -4 12 -7 27 -7 23
0 163 136 853 825 l825 825 65 0 65 0 -818 -818 c-449 -449 -817 -821 -817
-825 0 -4 12 -7 27 -7 23 0 163 136 853 825 l825 825 65 0 65 0 -818 -818
c-449 -449 -817 -821 -817 -825 0 -4 12 -7 27 -7 23 0 190 162 1030 1002 551
551 1004 1000 1006 998 2 -3 13 -21 25 -40 l21 -36 -945 -944 c-520 -520 -950
-953 -955 -962 -8 -15 -5 -18 18 -18 23 0 174 147 965 937 515 515 939 935
942 933 2 -3 11 -23 20 -45 l17 -39 -886 -886 c-487 -487 -885 -889 -885 -893
0 -4 12 -7 27 -7 23 0 169 142 895 867 813 813 868 865 876 842 28 -75 87 -9
-779 -874 -440 -440 -805 -808 -810 -817 -8 -15 -5 -18 18 -18 23 0 152 125
815 787 763 763 787 786 794 757 4 -16 13 -36 20 -44 12 -14 -83 -112 -712
-740 -399 -399 -730 -733 -735 -742 -8 -15 -5 -18 18 -18 23 0 254 226 1511
1483 816 815 1492 1494 1503 1510 11 15 19 37 17 50 -4 18 -130 -103 -755
-727 l-751 -749 -7 58 -8 57 762 762 c635 636 761 766 761 789 0 15 -3 26 -7
25 -5 -1 -21 4 -36 10 -16 7 -34 12 -41 12 -29 0 -23 16 29 72 36 39 55 68 55
84 0 34 -18 23 -105 -65 -72 -74 -84 -79 -154 -65 l-32 7 146 147 c112 114
145 154 145 174 0 14 -3 26 -7 26 -4 0 -86 -79 -184 -176 l-176 -176 -58 7
-57 8 241 242 c194 194 241 247 241 268 0 15 -3 27 -7 27 -4 0 -131 -124 -283
-275 l-276 -275 -64 0 -64 0 347 348 c284 285 347 353 347 375 0 15 -3 27 -7
27 -4 0 -179 -171 -388 -379 l-380 -379 -55 -7 c-30 -3 -64 -9 -75 -12 -11 -3
188 204 443 459 384 386 462 469 462 491 0 23 -3 26 -17 18 -10 -5 -306 -298
-658 -650 l-640 -641 -50 6 c-27 4 -52 9 -55 11 -2 2 316 324 708 716 594 594
712 717 712 740 0 15 -3 27 -7 27 -4 0 -339 -331 -743 -735 l-736 -736 -53 12
-54 11 274 273 c248 246 278 273 314 279 22 3 47 11 55 16 13 9 12 13 -8 27
-23 16 -22 18 467 508 406 406 491 496 491 518 0 15 -3 27 -7 27 -4 0 -239
-231 -523 -514 l-515 -514 -58 5 -59 6 581 581 c486 487 581 586 581 609 0 23
-3 26 -17 18 -10 -5 -286 -278 -613 -605 l-595 -596 -65 0 -65 0 678 678 c564
564 677 682 677 705 0 15 -3 27 -7 27 -4 0 -327 -319 -718 -709 l-710 -709
-70 -6 -69 -6 732 733 c402 403 732 736 732 740 0 4 -12 7 -27 7 -23 0 -179
-152 -958 -930 l-931 -931 -42 24 -41 23 890 890 c490 489 895 897 900 907 8
14 5 17 -18 17 -23 0 -168 -141 -924 -896 l-897 -896 -38 12 c-22 7 -43 15
-48 18 -4 2 384 397 863 876 479 479 871 875 871 879 0 4 -12 7 -27 7 -23 0
-171 -143 -903 -873 l-875 -874 -54 10 -54 9 857 857 c471 471 856 860 856
864 0 4 -12 7 -27 7 -23 0 -168 -141 -888 -860 l-860 -860 -65 0 -65 0 853
853 c468 469 852 856 852 860 0 4 -12 7 -27 7 -23 0 -169 -142 -893 -864
l-865 -863 -79 -15 -78 -16 871 872 c479 479 871 875 871 879 0 4 -12 7 -27 7
-23 0 -175 -147 -928 -899 -792 -791 -907 -902 -958 -926 -31 -14 -99 -54
-150 -87 -88 -57 -47 -15 886 919 537 538 977 982 977 986 0 4 -12 7 -27 7
-23 0 -195 -167 -1063 -1034 l-1035 -1034 -75 -22 c-41 -11 -82 -23 -90 -26
-40 -13 123 130 199 175 47 29 100 62 116 75 l30 24 -28 13 -28 13 900 900
c496 496 901 905 901 909 0 4 -12 7 -27 7 -23 0 -175 -147 -928 -899 l-900
-899 -44 19 -45 20 872 872 c480 480 872 876 872 880 0 4 -12 7 -27 7 -23 0
-170 -142 -898 -869 l-870 -869 -44 19 -45 20 842 842 c463 463 842 846 842
850 0 4 -12 7 -27 7 -23 0 -152 -124 -778 -750 l-751 -751 -53 13 -52 12 730
731 c402 401 731 734 731 738 0 4 -12 7 -27 7 -23 0 -150 -122 -764 -736
l-737 -737 -57 8 -58 7 722 722 c396 397 721 725 721 729 0 4 -12 7 -27 7 -23
0 -149 -121 -758 -729 l-730 -730 -67 -3 -68 -3 725 725 c399 399 725 729 725
733 0 4 -12 7 -27 7 -23 0 -151 -124 -768 -739 -730 -729 -741 -739 -786 -744
-25 -4 -58 -11 -73 -17 -23 -8 -26 -13 -17 -24 7 -8 24 -17 38 -21 25 -6 21
-11 -100 -133 l-127 -127 -61 3 -62 4 892 892 c490 490 891 895 891 899 0 4
-12 7 -27 7 -23 0 -174 -146 -923 -895 l-895 -895 -65 0 -65 0 888 888 c488
488 887 891 887 895 0 4 -12 7 -27 7 -23 0 -175 -147 -928 -899 l-900 -899
-68 -4 -68 -4 896 896 c492 492 895 899 895 903 0 4 -12 7 -27 7 -23 0 -176
-148 -935 -907z m2493 -644 l51 -11 -118 -119 c-65 -66 -128 -122 -138 -125
-11 -4 -35 -13 -55 -21 -33 -14 -34 -16 -16 -29 18 -14 18 -15 -14 -48 l-34
-35 -39 26 -39 27 173 173 c95 95 174 173 175 173 1 0 25 -5 54 -11z m-2407
-15 l48 -7 -129 -129 -128 -128 -45 6 c-25 4 -49 9 -54 12 -10 6 234 252 250
252 6 0 32 -3 58 -6z m222 -33 c-24 -25 -34 -29 -64 -24 l-35 6 6 -35 c5 -34
2 -38 -241 -281 -244 -243 -248 -247 -289 -247 -86 0 -85 3 68 156 79 79 150
144 157 144 7 0 15 8 19 18 3 9 67 79 142 155 l136 137 64 0 65 0 -28 -29z
m2384 -15 c-28 -27 -69 -53 -110 -69 -36 -14 -83 -33 -105 -42 -38 -16 -36
-13 45 69 l85 86 65 0 65 0 -45 -44z m-11 -212 l-255 -255 -42 16 c-23 10 -42
20 -42 24 0 4 14 20 30 36 29 27 32 28 65 16 34 -12 37 -11 83 27 68 58 267
263 281 290 16 30 7 52 -20 52 l-22 0 23 25 c20 22 32 25 89 25 l66 0 -256
-256z m-2394 66 l29 -31 -194 -194 -195 -195 -65 0 -65 0 225 225 c124 124
227 225 231 225 3 0 18 -14 34 -30z m100 -100 l29 -31 -139 -139 -140 -140
-65 0 -65 0 170 170 c93 94 172 170 176 170 3 0 18 -14 34 -30z m2768 -33 l47
-12 -133 -133 -133 -133 -58 7 -58 7 138 138 c77 77 141 139 144 139 3 0 26
-6 53 -13z m662 -197 l-200 -200 -3 62 -3 62 126 126 126 127 62 10 c34 5 69
11 77 11 8 1 -75 -88 -185 -198z m-2631 181 c6 -9 -99 -113 -151 -149 -39 -27
-59 -28 -73 -2 -13 25 5 44 107 111 73 47 106 59 117 40z m-1504 -116 c-63
-63 -118 -111 -122 -107 -4 4 -14 23 -22 43 l-15 36 67 66 c69 68 77 71 172
75 35 2 34 2 -80 -113z m3665 105 l40 0 -130 -130 c-117 -118 -133 -130 -165
-130 -93 0 -93 2 47 142 99 100 132 128 148 124 11 -3 38 -6 60 -6z m-2852
-38 l27 -28 -78 -76 -77 -76 -73 -9 -73 -10 113 114 c62 62 118 113 123 113 6
0 23 -13 38 -28z m2957 -97 l-125 -125 -65 0 -65 0 125 125 125 125 65 0 65 0
-125 -125z m-405 -805 c-275 -275 -502 -500 -505 -500 -4 0 -11 22 -16 49
l-10 50 443 443 443 443 63 6 c34 3 66 7 72 7 5 1 -215 -223 -490 -498z m-130
70 c-225 -225 -413 -406 -416 -402 -4 4 -12 25 -18 47 l-11 40 354 354 354
354 63 7 c35 4 68 8 74 9 5 0 -174 -183 -400 -409z m-135 65 l-325 -326 -17
38 c-10 21 -18 43 -18 48 0 6 121 131 269 279 l269 269 69 7 c37 4 70 8 73 9
3 0 -141 -145 -320 -324z m-140 60 c-129 -129 -238 -235 -241 -235 -4 0 -14
19 -24 42 l-16 42 187 187 c104 104 197 190 208 192 12 2 43 5 71 6 l50 1
-235 -235z m-145 55 l-159 -159 -20 45 -19 45 108 109 c112 112 118 116 205
119 l45 1 -160 -160z m-140 60 l-80 -80 -17 22 c-32 41 -32 58 -1 90 36 39 56
47 123 47 l55 1 -80 -80z m-1257 -213 l21 -23 -211 -209 c-216 -215 -223 -218
-112 -50 71 108 163 216 227 265 29 22 52 40 53 40 0 0 10 -10 22 -23z m742
-102 l-115 -115 -64 0 -65 0 38 39 c21 22 55 44 79 51 67 20 130 55 183 103
92 84 58 37 -56 -78z m195 55 l29 -30 -84 -85 c-66 -66 -86 -82 -93 -70 -5 10
-23 15 -50 15 l-42 0 100 100 c55 55 102 100 105 100 4 0 19 -14 35 -30z
m-836 -33 l40 -23 -324 -324 c-179 -179 -325 -319 -325 -313 0 7 11 47 25 90
l24 77 258 258 c142 142 259 258 259 258 1 0 20 -10 43 -23z m937 -73 l23 -30
-134 -134 -135 -135 0 65 0 65 102 102 c57 57 107 102 112 100 5 -2 20 -17 32
-33z m83 -110 l25 -35 -177 -177 -177 -177 0 65 0 65 147 147 c81 82 150 148
153 148 3 0 16 -16 29 -36z"/>
<path d="M3696 1450 c-779 -778 -1422 -1423 -1427 -1432 -8 -15 -5 -18 18 -18
23 0 239 212 1411 1383 761 760 1392 1394 1403 1410 11 15 19 37 17 50 -4 18
-245 -218 -1422 -1393z"/>
<path d="M3796 1350 c-724 -723 -1322 -1323 -1327 -1332 -8 -15 -5 -18 18 -18
23 0 225 197 1311 1283 706 705 1292 1294 1303 1310 11 15 19 37 17 50 -4 18
-227 -201 -1322 -1293z"/>
<path d="M3896 1250 c-669 -668 -1222 -1223 -1227 -1232 -8 -15 -5 -18 18 -18
23 0 210 183 1211 1182 651 651 1192 1195 1203 1211 11 15 19 37 17 50 -4 18
-210 -183 -1222 -1193z"/>
<path d="M3996 1150 c-614 -613 -1122 -1123 -1127 -1132 -8 -15 -5 -18 18 -18
23 0 196 168 1111 1082 596 596 1092 1095 1103 1111 11 15 19 37 17 50 -4 18
-193 -166 -1122 -1093z"/>
<path d="M4096 1050 c-559 -558 -1022 -1023 -1027 -1033 -8 -14 -5 -17 18 -17
23 0 181 153 1011 983 541 540 992 994 1003 1010 11 15 19 37 17 50 -4 18
-175 -149 -1022 -993z"/>
<path d="M4196 950 c-504 -503 -922 -923 -927 -932 -8 -15 -5 -18 18 -18 23 0
167 139 911 882 486 486 892 895 903 911 11 15 19 37 17 50 -4 18 -158 -132
-922 -893z"/>
<path d="M4296 850 c-449 -448 -822 -823 -827 -832 -8 -15 -5 -18 18 -18 23 0
152 124 811 783 431 430 792 794 803 810 11 15 19 37 17 50 -4 18 -141 -114
-822 -793z"/>
<path d="M4396 750 c-394 -393 -722 -723 -727 -732 -8 -15 -5 -18 18 -18 23 0
137 110 711 683 376 375 692 694 703 710 11 15 19 37 17 50 -4 18 -124 -97
-722 -693z"/>
<path d="M4496 650 c-339 -338 -622 -623 -627 -632 -8 -15 -5 -18 18 -18 23 0
123 95 611 583 321 320 592 594 603 610 11 15 19 37 17 50 -4 18 -106 -80
-622 -593z"/>
<path d="M4596 550 c-284 -283 -522 -523 -527 -533 -8 -14 -5 -17 18 -17 23 0
108 81 511 483 266 265 492 494 503 510 11 15 19 37 17 50 -4 18 -89 -62 -522
-493z"/>
<path d="M4696 450 c-229 -228 -422 -423 -427 -432 -8 -15 -5 -18 18 -18 22 0
93 66 411 383 211 210 392 394 403 410 11 15 19 37 17 50 -4 18 -72 -45 -422
-393z"/>
<path d="M4796 350 c-174 -173 -322 -323 -327 -332 -8 -15 -5 -18 17 -18 23 0
80 52 312 282 156 156 293 295 303 311 11 15 19 37 17 50 -4 18 -54 -28 -322
-293z"/>
<path d="M4896 250 c-119 -118 -222 -223 -227 -232 -8 -15 -5 -18 17 -18 21 0
65 37 211 183 205 202 226 227 221 260 -3 19 -37 -11 -222 -193z"/>
<path d="M4996 150 c-136 -133 -149 -150 -111 -150 18 0 49 23 111 82 102 98
127 130 122 161 -3 19 -19 7 -122 -93z"/>
</g>
</svg>
